<svg width="113" height="113" viewBox="0 0 113 113" fill="none" xmlns="http://www.w3.org/2000/svg">
<path d="M56.5751 112.214C87.504 112.214 112.577 87.1185 112.577 56.1619C112.577 25.2052 87.504 0.109863 56.5751 0.109863C25.6461 0.109863 0.57328 25.2052 0.57328 56.1619C0.57328 87.1185 25.6461 112.214 56.5751 112.214Z" fill="white"/>
<path d="M56.5751 19.064C36.0195 19.064 19.3485 35.75 19.3485 56.3239C19.3485 76.8979 36.0195 93.5839 56.5751 93.5839C77.1307 93.5839 93.8017 76.8979 93.8017 56.3239C93.8017 35.75 77.1307 19.064 56.5751 19.064ZM77.4544 75.7639L63.5349 71.066C62.24 70.58 61.2689 69.4459 61.2689 67.9879V54.7039L56.8988 47.9L53.0143 53.894V67.826C53.0143 69.284 52.0432 70.4179 50.7483 70.9039L36.8288 75.602C34.7247 76.25 32.4587 74.63 32.6206 72.362C32.9443 63.776 35.2103 45.47 47.9968 37.532C50.1009 36.236 52.8525 37.856 52.8525 40.286V47.576L55.1184 44.174V29.918C55.1184 28.946 55.9277 28.298 56.737 28.298C57.7081 28.298 58.3555 29.108 58.3555 29.918V44.174L60.9452 48.224V40.124C60.9452 37.532 63.6967 36.074 65.8009 37.37C78.7492 45.308 81.0152 63.6139 81.1771 72.1999C81.8245 74.7919 79.5585 76.5739 77.4544 75.7639Z" fill="#38DAE0"/>
</svg>
